<svg width="140" height="54" viewBox="0 0 140 54" fill="none" xmlns="http://www.w3.org/2000/svg">
<g filter="url(#filter0_d)">
<path d="M5.6 12.54C5.88 8.86 7.3 5.98 9.86 3.9C12.42 1.82 15.74 0.779997 19.82 0.779997C22.54 0.779997 24.88 1.28 26.84 2.28C28.84 3.24 30.34 4.56 31.34 6.24C32.38 7.92 32.9 9.82 32.9 11.94C32.9 14.42 32.18 16.56 30.74 18.36C29.34 20.16 27.5 21.32 25.22 21.84V22.14C27.82 22.78 29.88 24.04 31.4 25.92C32.92 27.8 33.68 30.26 33.68 33.3C33.68 35.58 33.16 37.64 32.12 39.48C31.08 41.28 29.52 42.7 27.44 43.74C25.36 44.78 22.86 45.3 19.94 45.3C15.7 45.3 12.22 44.2 9.5 42C6.78 39.76 5.26 36.6 4.94 32.52H10.22C10.5 34.92 11.48 36.88 13.16 38.4C14.84 39.92 17.08 40.68 19.88 40.68C22.68 40.68 24.8 39.96 26.24 38.52C27.72 37.04 28.46 35.14 28.46 32.82C28.46 29.82 27.46 27.66 25.46 26.34C23.46 25.02 20.44 24.36 16.4 24.36H15.02V19.8H16.46C20.14 19.76 22.92 19.16 24.8 18C26.68 16.8 27.62 14.96 27.62 12.48C27.62 10.36 26.92 8.66 25.52 7.38C24.16 6.1 22.2 5.46 19.64 5.46C17.16 5.46 15.16 6.1 13.64 7.38C12.12 8.66 11.22 10.38 10.94 12.54H5.6ZM65.232 11.94C64.352 7.5 61.612 5.28 57.012 5.28C53.452 5.28 50.792 6.66 49.032 9.42C47.272 12.14 46.412 16.64 46.452 22.92C47.372 20.84 48.892 19.22 51.012 18.06C53.172 16.86 55.572 16.26 58.212 16.26C62.332 16.26 65.612 17.54 68.052 20.1C70.532 22.66 71.772 26.2 71.772 30.72C71.772 33.44 71.232 35.88 70.152 38.04C69.112 40.2 67.512 41.92 65.352 43.2C63.232 44.48 60.652 45.12 57.612 45.12C53.492 45.12 50.272 44.2 47.952 42.36C45.632 40.52 44.012 37.98 43.092 34.74C42.172 31.5 41.712 27.5 41.712 22.74C41.712 8.06 46.832 0.719998 57.072 0.719998C60.992 0.719998 64.072 1.78 66.312 3.9C68.552 6.02 69.872 8.7 70.272 11.94H65.232ZM57.072 20.88C55.352 20.88 53.732 21.24 52.212 21.96C50.692 22.64 49.452 23.7 48.492 25.14C47.572 26.54 47.112 28.26 47.112 30.3C47.112 33.34 47.992 35.82 49.752 37.74C51.512 39.62 54.032 40.56 57.312 40.56C60.112 40.56 62.332 39.7 63.972 37.98C65.652 36.22 66.492 33.86 66.492 30.9C66.492 27.78 65.692 25.34 64.092 23.58C62.492 21.78 60.152 20.88 57.072 20.88ZM79.138 22.86C79.138 15.98 80.258 10.62 82.498 6.78C84.738 2.9 88.658 0.959998 94.258 0.959998C99.818 0.959998 103.718 2.9 105.958 6.78C108.198 10.62 109.318 15.98 109.318 22.86C109.318 29.86 108.198 35.3 105.958 39.18C103.718 43.06 99.818 45 94.258 45C88.658 45 84.738 43.06 82.498 39.18C80.258 35.3 79.138 29.86 79.138 22.86ZM103.918 22.86C103.918 19.38 103.678 16.44 103.198 14.04C102.758 11.6 101.818 9.64 100.378 8.16C98.978 6.68 96.938 5.94 94.258 5.94C91.538 5.94 89.458 6.68 88.018 8.16C86.618 9.64 85.678 11.6 85.198 14.04C84.758 16.44 84.538 19.38 84.538 22.86C84.538 26.46 84.758 29.48 85.198 31.92C85.678 34.36 86.618 36.32 88.018 37.8C89.458 39.28 91.538 40.02 94.258 40.02C96.938 40.02 98.978 39.28 100.378 37.8C101.818 36.32 102.758 34.36 103.198 31.92C103.678 29.48 103.918 26.46 103.918 22.86ZM114.774 13.56C114.774 10.4 115.754 7.86 117.714 5.94C119.714 4.02 122.274 3.06 125.394 3.06C128.514 3.06 131.054 4.02 133.014 5.94C134.974 7.86 135.954 10.4 135.954 13.56C135.954 15.68 135.494 17.54 134.574 19.14C133.654 20.74 132.374 21.98 130.734 22.86C129.134 23.74 127.314 24.18 125.274 24.18C122.154 24.18 119.614 23.22 117.654 21.3C115.734 19.34 114.774 16.76 114.774 13.56ZM131.574 13.56C131.574 11.28 130.974 9.5 129.774 8.22C128.614 6.9 127.134 6.24 125.334 6.24C123.574 6.24 122.094 6.9 120.894 8.22C119.734 9.5 119.154 11.28 119.154 13.56C119.154 15.92 119.714 17.74 120.834 19.02C121.994 20.26 123.474 20.88 125.274 20.88C127.074 20.88 128.574 20.24 129.774 18.96C130.974 17.68 131.574 15.88 131.574 13.56Z" fill="white"/>
</g>
<defs>
<filter id="filter0_d" x="0.940002" y="0.720215" width="139.014" height="52.58" filterUnits="userSpaceOnUse" color-interpolation-filters="sRGB">
<feFlood flood-opacity="0" result="BackgroundImageFix"/>
<feColorMatrix in="SourceAlpha" type="matrix" values="0 0 0 0 0 0 0 0 0 0 0 0 0 0 0 0 0 0 127 0"/>
<feOffset dy="4"/>
<feGaussianBlur stdDeviation="2"/>
<feColorMatrix type="matrix" values="0 0 0 0 0 0 0 0 0 0 0 0 0 0 0 0 0 0 0.3 0"/>
<feBlend mode="normal" in2="BackgroundImageFix" result="effect1_dropShadow"/>
<feBlend mode="normal" in="SourceGraphic" in2="effect1_dropShadow" result="shape"/>
</filter>
</defs>
</svg>
