<svg width="40" height="37" viewBox="0 0 40 37" fill="none" xmlns="http://www.w3.org/2000/svg">
<g clip-path="url(#clip0)">
<path d="M37.7917 0H2.20833C0.988333 0 0 0.905972 0 2.0243V34.6438C0 35.7607 0.988333 36.6667 2.20833 36.6667H21.3667V22.4675H16.1533V16.9338H21.3667V12.8532C21.3667 8.11708 24.5217 5.5382 29.1317 5.5382C31.34 5.5382 33.2367 5.68945 33.79 5.75667V10.7067L30.5933 10.7082C28.0867 10.7082 27.6017 11.8006 27.6017 13.4017V16.9355H33.58L32.8017 22.469H27.6017V36.6667H37.795C39.0117 36.6667 40 35.7607 40 34.6423V2.0243C40 0.905972 39.0117 0 37.7917 0Z" fill="white"/>
</g>
<defs>
<clipPath id="clip0">
<rect width="40" height="36.6667" fill="white"/>
</clipPath>
</defs>
</svg>
