<svg width="40" height="40" viewBox="0 0 40 40" fill="none" xmlns="http://www.w3.org/2000/svg">
<path d="M23.5156 20C23.5156 20.6953 23.3095 21.375 22.9232 21.9532C22.5368 22.5313 21.9878 22.9819 21.3454 23.248C20.703 23.5141 19.9961 23.5837 19.3141 23.4481C18.6322 23.3124 18.0058 22.9776 17.5141 22.4859C17.0224 21.9943 16.6876 21.3678 16.5519 20.6859C16.4163 20.0039 16.4859 19.297 16.752 18.6546C17.0181 18.0122 17.4687 17.4632 18.0468 17.0769C18.625 16.6906 19.3047 16.4844 20 16.4844C20.9324 16.4844 21.8266 16.8548 22.4859 17.5141C23.1452 18.1734 23.5156 19.0676 23.5156 20Z" fill="white"/>
<path d="M25.9375 9.375H14.0625C12.8197 9.37624 11.6281 9.8705 10.7493 10.7493C9.8705 11.6281 9.37624 12.8197 9.375 14.0625V25.9375C9.37624 27.1803 9.8705 28.3719 10.7493 29.2507C11.6281 30.1295 12.8197 30.6238 14.0625 30.625H25.9375C27.1803 30.6238 28.3719 30.1295 29.2507 29.2507C30.1295 28.3719 30.6238 27.1803 30.625 25.9375V14.0625C30.6238 12.8197 30.1295 11.6281 29.2507 10.7493C28.3719 9.8705 27.1803 9.37624 25.9375 9.375ZM20 25.8594C18.8411 25.8594 17.7083 25.5157 16.7447 24.8719C15.7811 24.2281 15.0301 23.3129 14.5866 22.2423C14.1432 21.1716 14.0271 19.9935 14.2532 18.8569C14.4793 17.7203 15.0373 16.6762 15.8568 15.8568C16.6762 15.0373 17.7203 14.4793 18.8569 14.2532C19.9935 14.0271 21.1716 14.1432 22.2423 14.5866C23.3129 15.0301 24.2281 15.7811 24.8719 16.7447C25.5157 17.7083 25.8594 18.8411 25.8594 20C25.8577 21.5535 25.2399 23.0429 24.1414 24.1414C23.0429 25.2399 21.5535 25.8577 20 25.8594ZM26.7188 14.4531C26.487 14.4531 26.2604 14.3844 26.0677 14.2556C25.875 14.1269 25.7248 13.9438 25.6361 13.7297C25.5474 13.5156 25.5242 13.2799 25.5694 13.0526C25.6146 12.8253 25.7262 12.6165 25.8901 12.4526C26.054 12.2887 26.2628 12.1771 26.4901 12.1319C26.7174 12.0867 26.9531 12.1099 27.1672 12.1986C27.3813 12.2873 27.5644 12.4375 27.6931 12.6302C27.8219 12.8229 27.8906 13.0495 27.8906 13.2812C27.8906 13.5921 27.7672 13.8901 27.5474 14.1099C27.3276 14.3297 27.0296 14.4531 26.7188 14.4531Z" fill="#FCFCFC"/>
<path d="M29.4531 0H10.5469C4.73125 0 0 4.73125 0 10.5469V29.4531C0 35.2688 4.73125 40 10.5469 40H29.4531C35.2688 40 40 35.2688 40 29.4531V10.5469C40 4.73125 35.2688 0 29.4531 0ZM32.9688 25.9375C32.9667 27.8017 32.2252 29.5889 30.9071 30.9071C29.5889 32.2252 27.8017 32.9667 25.9375 32.9688H14.0625C12.1983 32.9667 10.4111 32.2252 9.09294 30.9071C7.77477 29.5889 7.03332 27.8017 7.03125 25.9375V14.0625C7.03352 12.1984 7.77504 10.4113 9.09317 9.09317C10.4113 7.77504 12.1984 7.03352 14.0625 7.03125H25.9375C27.8017 7.03332 29.5889 7.77477 30.9071 9.09294C32.2252 10.4111 32.9667 12.1983 32.9688 14.0625V25.9375Z" fill="white"/>
</svg>
