<svg width="160" height="160" viewBox="0 0 160 160" fill="none" xmlns="http://www.w3.org/2000/svg">
<g clip-path="url(#clip0)">
<g filter="url(#filter0_d)">
<path d="M106.39 76.8709L73.1662 52.72C71.947 51.8361 70.3284 51.703 68.992 52.3898C67.6449 53.0714 66.8037 54.4557 66.8037 55.9518V104.238C66.8037 105.75 67.6449 107.129 68.992 107.81C69.5617 108.098 70.1846 108.242 70.8129 108.242C71.6328 108.242 72.4634 107.981 73.1662 107.464L106.39 83.3346C107.439 82.5626 108.051 81.3699 108.051 80.1027C108.056 78.8143 107.428 77.6269 106.39 76.8709Z" fill="white"/>
</g>
<g filter="url(#filter1_d)">
<path d="M80.0027 0.0102539C35.8111 0.0102539 0 35.8214 0 80.0129C0 124.188 35.8111 159.989 80.0027 159.989C124.184 159.989 160 124.183 160 80.0129C160.005 35.8214 124.184 0.0102539 80.0027 0.0102539ZM80.0027 146.641C43.2012 146.641 13.3639 116.82 13.3639 80.0129C13.3639 43.2221 43.2012 13.3636 80.0027 13.3636C116.799 13.3636 146.631 43.2168 146.631 80.0129C146.636 116.82 116.799 146.641 80.0027 146.641Z" fill="white"/>
</g>
</g>
<defs>
<filter id="filter0_d" x="56.8037" y="47.9531" width="61.2472" height="76.2884" filterUnits="userSpaceOnUse" color-interpolation-filters="sRGB">
<feFlood flood-opacity="0" result="BackgroundImageFix"/>
<feColorMatrix in="SourceAlpha" type="matrix" values="0 0 0 0 0 0 0 0 0 0 0 0 0 0 0 0 0 0 127 0"/>
<feOffset dy="6"/>
<feGaussianBlur stdDeviation="5"/>
<feColorMatrix type="matrix" values="0 0 0 0 0 0 0 0 0 0 0 0 0 0 0 0 0 0 0.3 0"/>
<feBlend mode="normal" in2="BackgroundImageFix" result="effect1_dropShadow"/>
<feBlend mode="normal" in="SourceGraphic" in2="effect1_dropShadow" result="shape"/>
</filter>
<filter id="filter1_d" x="-10" y="-3.98975" width="180" height="179.979" filterUnits="userSpaceOnUse" color-interpolation-filters="sRGB">
<feFlood flood-opacity="0" result="BackgroundImageFix"/>
<feColorMatrix in="SourceAlpha" type="matrix" values="0 0 0 0 0 0 0 0 0 0 0 0 0 0 0 0 0 0 127 0"/>
<feOffset dy="6"/>
<feGaussianBlur stdDeviation="5"/>
<feColorMatrix type="matrix" values="0 0 0 0 0 0 0 0 0 0 0 0 0 0 0 0 0 0 0.3 0"/>
<feBlend mode="normal" in2="BackgroundImageFix" result="effect1_dropShadow"/>
<feBlend mode="normal" in="SourceGraphic" in2="effect1_dropShadow" result="shape"/>
</filter>
<clipPath id="clip0">
<rect width="160" height="160" fill="white"/>
</clipPath>
</defs>
</svg>
